<svg xmlns="http://www.w3.org/2000/svg" xmlns:xlink="http://www.w3.org/1999/xlink" width="318" height="338" viewBox="0 0 318 338">
  <defs>
    <linearGradient id="linear-gradient" x1="0.5" x2="0.5" y2="1" gradientUnits="objectBoundingBox">
      <stop offset="0" stop-color="#0c346c"/>
      <stop offset="0" stop-color="#0b2c63"/>
      <stop offset="1" stop-color="#040634"/>
    </linearGradient>
    <filter id="Polígono_2" x="0" y="20" width="318" height="318" filterUnits="userSpaceOnUse">
      <feOffset dy="3" input="SourceAlpha"/>
      <feGaussianBlur stdDeviation="3" result="blur"/>
      <feFlood flood-opacity="0"/>
      <feComposite operator="in" in2="blur"/>
      <feComposite in="SourceGraphic"/>
    </filter>
    <filter id="J_" x="9" y="0" width="113" height="206" filterUnits="userSpaceOnUse">
      <feOffset dy="5" input="SourceAlpha"/>
      <feGaussianBlur stdDeviation="5" result="blur-2"/>
      <feFlood flood-opacity="0.161"/>
      <feComposite operator="in" in2="blur-2"/>
      <feComposite in="SourceGraphic"/>
    </filter>
    <filter id="S" x="204" y="0" width="114" height="206" filterUnits="userSpaceOnUse">
      <feOffset dy="5" input="SourceAlpha"/>
      <feGaussianBlur stdDeviation="5" result="blur-3"/>
      <feFlood flood-opacity="0.161"/>
      <feComposite operator="in" in2="blur-3"/>
      <feComposite in="SourceGraphic"/>
    </filter>
  </defs>
  <g id="Grupo_1" data-name="Grupo 1" transform="translate(-472 -194)">
    <g id="Rectángulo_1" data-name="Rectángulo 1" transform="translate(481 220)" stroke="rgba(255,255,255,0)" stroke-width="1" fill="url(#linear-gradient)">
      <rect width="300" height="300" stroke="none"/>
      <rect x="0.5" y="0.5" width="299" height="299" fill="none"/>
    </g>
    <g transform="matrix(1, 0, 0, 1, 472, 194)" filter="url(#Polígono_2)">
      <g id="Polígono_2-2" data-name="Polígono 2" transform="translate(9 26)" fill="#3eb4ff">
        <path d="M150,0,300,300H0Z" stroke="none"/>
        <path d="M 150 2.236083984375 L 1.6180419921875 299 L 298.3819580078125 299 L 150 2.236083984375 M 150 0 L 300 300 L 0 300 L 150 0 Z" stroke="none" fill="rgba(255,255,255,0)"/>
      </g>
    </g>
    <g transform="matrix(1, 0, 0, 1, 472, 194)" filter="url(#J_)">
      <text id="J_2" data-name="J   " transform="translate(24 10)" fill="#f4f4f4" font-size="150" font-family="Consolas-Bold, Consolas" font-weight="700"><tspan x="0" y="138" xml:space="preserve">J   </tspan></text>
    </g>
    <g transform="matrix(1, 0, 0, 1, 472, 194)" filter="url(#S)">
      <text id="S-2" data-name="S" transform="translate(219 10)" fill="#f4f4f4" font-size="150" font-family="Consolas-Bold, Consolas" font-weight="700"><tspan x="0" y="138">S</tspan></text>
    </g>
  </g>
</svg>
